<?xml version="1.0" encoding="utf-8"?>
<!-- Generator: Adobe Illustrator 24.1.0, SVG Export Plug-In . SVG Version: 6.00 Build 0)  -->
<svg version="1.1" id="Layer_1" xmlns="http://www.w3.org/2000/svg" xmlns:xlink="http://www.w3.org/1999/xlink" x="0px" y="0px"
	 viewBox="0 0 1000 1000" style="enable-background:new 0 0 1000 1000;" xml:space="preserve">
<style type="text/css">
	.st0{fill:#36B700;}
	.st1{fill:#FF8500;}
</style>
<g>
	<g transform="translate(0.000000,252.000000) scale(0.100000,-0.100000)">
		<path class="st0" d="M6744.7,2238.1C6295.1,1902.9,5502.5,850,5427.5,499c-31.5-153.8-138-138-228.7,31.6
			c-94.6,181.4-418,461.4-650.7,571.8c-540.3,256.3-1064.7,252.4-1597.1-11.8C2501.5,861.9,2051.9,298,1996.7-112.2
			c-35.5-252.4,19.7-268.2,583.7-149.8c457.4,94.6,1380.2,224.8,1407.8,197.2c7.9-7.9-7.9-185.4-35.5-398.3
			c-43.4-339.2-39.4-433.8,19.7-721.7c82.8-402.2,177.5-599.4,390.4-820.3c197.2-205,469.3-307.6,709.8-272.1
			c394.3,59.2,938.6,492.9,1159.4,914.9c67.1,130.1,138,212.9,177.5,212.9c35.5,0,228.7-181.4,433.8-398.3
			c824.2-899.1,812.4-887.3,887.3-840c130.1,74.9,252.4,386.5,276,694.1c39.4,528.4-149.8,1021.4-540.3,1411.8
			c-414.1,414.1-875.5,579.7-1470.9,536.3l-354.9-27.6l19.7,193.2c39.4,402.2,544.2,1198.8,1072.6,1687.8
			c173.5,161.7,303.7,299.7,295.8,311.5C7016.8,2427.4,6890.6,2344.6,6744.7,2238.1z"/>
		<path class="st1" d="M3112.8-455.3c-185.4-35.5-252.4-71-347.1-181.4c-272.1-327.3-477.1-981.9-666.4-2153.1
			c-118.3-733.5-145.9-2086.1-59.2-2693.4c67.1-453.5,212.9-974.1,339.1-1230.4c122.3-236.6,422-536.3,611.2-611.2
			c698-264.2,1664.2,429.9,2642.1,1896.8c378.6,567.9,800.5,1352.6,1056.8,1963.9C6878.8-3006.8,7072-2431,7072-2316.7
			c0,59.2-110.4,220.8-299.7,433.8l-295.8,339.2L6326.7-1733c-603.4-761.1-1281.6-1021.3-1865.3-709.8
			c-232.6,122.2-489,402.2-631,682.2c-110.4,216.9-189.3,631-189.3,997.7v362.8l-145.9-3.9C3412.4-408,3242.9-427.7,3112.8-455.3z"
			/>
	</g>
</g>
</svg>
